# AST/ASF file generated using VICON BodyLanguage
# -----------------------------------------------
:version 1.10
:name VICON
:units
  mass 1.0
  length 0.45
  angle deg
:documentation
   .ast/.asf automatically generated from VICON data using
   VICON BodyBuilder and BodyLanguage model FoxedUp or BRILLIANT.MOD
:root
   order TX TY TZ RX RY RZ
   axis XYZ
   position 0 0 0  
   orientation 0 0 0 
:bonedata
  begin
     id 1 
     name lhipjoint
     direction 0.722297 -0.617336 0.311742 
     length 2.6635 
     axis 0 0 0  XYZ
  end
  begin
     id 2 
     name lfemur
     direction 0.34202 -0.939693 0  
     length 7.39349  
     axis 0 0 20  XYZ
    dof rx ry rz
    limits (-160.0 20.0)
           (-70.0 70.0)
           (-60.0 70.0)
  end
  begin
     id 3 
     name ltibia
     direction 0.34202 -0.939693 0   
     length 7.36294   
     axis 0 0 20   XYZ
    dof rx
    limits (-10.0 170.0)
  end
  begin
     id 4 
     name lfoot
     direction 0.104879 -0.288152 0.951824   
     length 2.16981   
     axis -90 7.62852e-016 20   XYZ
    dof rx rz
    limits (-45.0 90.0)
           (-70.0 20.0)
  end
  begin
     id 5 
     name ltoes
     direction 1.53586e-011 -4.21895e-011 1   
     length 1.08218   
     axis -90 7.62852e-016 20   XYZ
    dof rx
    limits (-90.0 20.0)
  end
  begin
     id 6 
     name rhipjoint
     direction -0.75102 -0.589393 0.297631   
     length 2.78977  
     axis 0 0 0  XYZ 
  end
  begin
     id 7 
     name rfemur
     direction -0.34202 -0.939693 0   
     length 7.46076   
     axis 0 0 -20   XYZ
    dof rx ry rz
    limits (-160.0 20.0)
           (-70.0 70.0)
           (-70.0 60.0)
  end
  begin
     id 8 
     name rtibia
     direction -0.34202 -0.939693 0   
     length 7.31726   
     axis 0 0 -20   XYZ
    dof rx
    limits (-10.0 170.0)
 end
 begin
     id 9 
     name rfoot
     direction -0.107991 -0.296704 0.948844   
     length 2.09388  
     axis -90 -7.62852e-016 -20   XYZ
    dof rx rz
    limits (-45.0 90.0)
           (-20.0 70.0)
  end
  begin
     id 10 
     name rtoes
     direction -1.53559e-011 -4.21911e-011 1   
     length 1.04433   
     axis -90 -7.62852e-016 -20   XYZ
    dof rx
    limits (-90.0 20.0)
  end
  begin
     id 11 
     name lowerback
     direction 0.0165164 0.98272 0.184358   
     length 1.71896   
     axis 0 0 0   XYZ
    dof rx ry rz
    limits (-20.0 45.0)
           (-30.0 30.0)
           (-30.0 30.0)
  end
  begin
     id 12 
     name upperback
     direction -0.00887249 0.992297 0.123566   
     length 1.71504   
     axis 0 0 0   XYZ
    dof rx ry rz
    limits (-20.0 45.0)
           (-30.0 30.0)
           (-30.0 30.0)
  end
  begin
     id 13 
     name thorax
     direction -0.0157026 0.998908 0.0440032   
     length 1.77022   
     axis 0 0 0   XYZ
    dof rx ry rz
    limits (-20.0 45.0)
           (-30.0 30.0)
           (-30.0 30.0)
  end
  begin
     id 14 
     name lowerneck
     direction -0.0238856 0.998137 0.0561411   
     length 1.89341   
     axis 0 0 0   XYZ
    dof rx ry rz
    limits (-20.0 45.0)
           (-30.0 30.0)
           (-30.0 30.0)
  end
  begin
     id 15 
     name upperneck
     direction 0.0276574 0.952253 -0.304056   
     length 1.86999   
     axis 0 0 0   XYZ
    dof rx ry rz
    limits (-20.0 45.0)
           (-30.0 30.0)
           (-30.0 30.0)
  end
  begin
     id 16
     name head
     direction 0.00800083 0.994258 -0.106712  
     length 1.91492  
     axis 0 0 0   XYZ
    dof rx ry rz
    limits (-20.0 45.0)
           (-30.0 30.0)
           (-30.0 30.0)
  end
  begin
     id 17 
     name lclavicle
     direction 0.97203 0.225407 0.06595  
     length 3.34889  
     axis 0 0 0   XYZ
    dof ry rz
    limits (-20.0 10.0)
           (0.0 20.0)
  end
  begin
     id 18 
     name lhumerus
     direction 1 -4.48973e-011 2.20267e-027   
     length 4.85645   
     axis 180 -30 -90   XYZ
    dof rx ry rz
    limits (-60.0 90.0)
           (-90.0 90.0)
           (-90.0 90.0)
  end
  begin
     id 19
     name lradius
     direction 1 -4.4897e-011 4.60472e-027   
     length 2.79874   
     axis 180 -30 -90   XYZ
    dof rx
    limits (-10.0 170.0)
  end
  begin
     id 20
     name lwrist
     direction 1 -4.48952e-011 1.14928e-026   
     length 1.39937   
     axis -6.29373e-015 90 90   XYZ
    dof ry
    limits (-180.0 0.0)
 end
  begin
     id 21 
     name lhand
     direction 1 -4.48967e-011 2.29886e-026   
     length 0.573398   
     axis -1.46689e-014 90 90   XYZ
    dof rx rz
    limits (-90.0 90.0)
           (-45.0 45.0)
  end
  begin
     id 22 
     name lfingers
     direction 1 -4.48955e-011 4.59726e-026   
     length 0.462289   
     axis -2.93383e-014 90 90   XYZ
    dof rx
    limits (0.0 90.0)
  end
  begin
     id 23
     name lthumb
     direction 0.707107 -6.34866e-011 0.707107   
     length 0.663757   
     axis -90 45 5.69224e-014   XYZ
    dof rx rz
    limits (-45.0 45.0)
           (-45.0 45.0)
  end
  begin
     id 24 
     name rclavicle
     direction -0.981571 0.157346 0.108443   
     length 3.35257  
     axis 0 0 0   XYZ 
    dof ry rz
    limits (-10.0 20.0)
           (-20.0 0.0)
  end
  begin
     id 25 
     name rhumerus
     direction -1 -4.48967e-011 8.58308e-029  
     length 4.67018   
     axis 180 30 90   XYZ
    dof rx ry rz
    limits (-90.0 60.0)
           (-90.0 90.0)
           (-90.0 90.0)
  end
  begin
     id 26 
     name rradius
     direction -1 -4.48958e-011 4.52548e-027   
     length 2.65534   
     axis 180 30 90   XYZ
    dof rx
    limits (-10.0 170.0)
  end
  begin
     id 27 
     name rwrist
     direction -1 -4.48977e-011 1.14952e-026   
     length 1.32767   
     axis -6.29373e-015 -90 -90   XYZ
    dof ry
    limits (-180.0 0.0)
  end
  begin
     id 28
     name rhand
     direction -1 -4.48924e-011 2.29804e-026   
     length 0.594069   
     axis -1.46689e-014 -90 -90   XYZ
    dof rx rz
    limits (-90.0 90.0)
           (-45.0 45.0)
  end
  begin
     id 29
     name rfingers
     direction -1 -4.48998e-011 4.59888e-026   
     length 0.478954   
     axis -2.93383e-014 -90 -90   XYZ
    dof rx
    limits (0.0 90.0)
  end
  begin
     id 30
     name rthumb
     direction -0.707107 -6.34933e-011 0.707107   
     length 0.687685   
     axis -90 -45 -5.69224e-014   XYZ
    dof rx rz
    limits (-45.0 45.0)
           (-45.0 45.0)
  end
:hierarchy
  begin
    root lhipjoint rhipjoint lowerback
    lhipjoint lfemur
    lfemur ltibia
    ltibia lfoot
    lfoot ltoes
    rhipjoint rfemur
    rfemur rtibia
    rtibia rfoot
    rfoot rtoes
    lowerback upperback
    upperback thorax
    thorax lowerneck lclavicle rclavicle
    lowerneck upperneck
    upperneck head
    lclavicle lhumerus
    lhumerus lradius
    lradius lwrist
    lwrist lhand lthumb
    lhand lfingers
    rclavicle rhumerus
    rhumerus rradius
    rradius rwrist
    rwrist rhand rthumb
    rhand rfingers
  end

#!OML:ASF E:\pregnant2\Project 1\Capture day 1\Session 1\pregnant2.ASF
:FULLY-SPECIFIED
:DEGREES
1089
root -5.1033 1.31076 18.0272 -77.1518 -2.95996 1.4319
lowerback -6.44105 1.51929 2.93852
upperback -9.69945 1.74851 -3.46737
thorax -6.36093 0.500399 -5.27761
lowerneck -8.93115 0.594106 4.04617
upperneck 19.5084 0.271646 -0.632734
head 7.47175 0.373299 -0.857552
rclavicle 1.15295e-014 -2.5842e-014
rhumerus -27.3412 -9.41239 -13.6798
rradius 31.6977
rwrist -36.5797
rhand -28.2871 -46.3953
rfingers 7.12502
rthumb 178.337 103.631
lclavicle 1.15295e-014 -2.5842e-014
lhumerus -24.1622 7.29634 11.1208
lradius 30.6949
lwrist 50.7777
lhand -32.3788 47.9274
lfingers 7.12502
lthumb 174.385 -102.167
rfemur -61.3431 -4.66897 20.8825
rtibia 107.107
rfoot 30.873 -11.2983
rtoes 24.4227
lfemur -60.2915 2.25313 -20.0004
ltibia 106.315
lfoot 29.4852 -10.9333
ltoes -15.3342
1090
root -5.10273 1.31184 18.0265 -77.1233 -2.952 1.4294
lowerback -6.49889 1.52231 2.93261
upperback -9.69466 1.75165 -3.46566
thorax -6.32272 0.503534 -5.27042
lowerneck -8.95182 0.587498 4.01335
upperneck 19.5217 0.261682 -0.607623
head 7.47947 0.368477 -0.844803
rclavicle 9.34288e-015 -4.96962e-017
rhumerus -27.334 -9.45232 -13.6528
rradius 31.6983
rwrist -36.6103
rhand -28.2474 -46.4071
rfingers 7.12502
rthumb 178.375 103.619
lclavicle 9.34288e-015 -4.96962e-017
lhumerus -24.1626 7.33411 11.134
lradius 30.6887
lwrist 50.7546
lhand -32.3767 47.9008
lfingers 7.12502
lthumb 174.388 -102.194
rfemur -61.3682 -4.65671 20.8709
rtibia 107.104
rfoot 30.8789 -11.2876
rtoes 24.3936
lfemur -60.3153 2.24856 -20.0132
ltibia 106.307
lfoot 29.4855 -10.9292
ltoes -15.3325
1091
root -5.1021 1.31308 18.0256 -77.0966 -2.94283 1.4255
lowerback -6.5533 1.52479 2.92619
upperback -9.69128 1.75415 -3.46416
thorax -6.28809 0.50625 -5.26334
lowerneck -8.96445 0.582376 4.00609
upperneck 19.5285 0.257753 -0.621366
head 7.4838 0.36476 -0.848477
rclavicle -2.26615e-014 1.71452e-014
rhumerus -27.3281 -9.46 -13.64
rradius 31.7002
rwrist -36.6053
rhand -28.1838 -46.394
rfingers 7.12502
rthumb 178.437 103.632
lclavicle -2.26615e-014 1.71452e-014
lhumerus -24.1639 7.36026 11.1485
lradius 30.6847
lwrist 50.743
lhand -32.3757 47.8693
lfingers 7.12502
lthumb 174.389 -102.225
rfemur -61.3895 -4.64946 20.8576
rtibia 107.1
rfoot 30.8842 -11.2719
rtoes 24.363
lfemur -60.3362 2.24132 -20.0274
ltibia 106.297
lfoot 29.4872 -10.9195
ltoes -15.3168
1092
root -5.10142 1.3144 18.0246 -77.0756 -2.9314 1.4207
lowerback -6.59699 1.52676 2.91731
upperback -9.68959 1.75619 -3.46269
thorax -6.26148 0.50865 -5.25529
lowerneck -8.97366 0.577768 4.0087
upperneck 19.5324 0.255841 -0.64887
head 7.4866 0.361428 -0.858112
rclavicle -8.54774e-015 1.62506e-014
rhumerus -27.3261 -9.42545 -13.6439
rradius 31.7027
rwrist -36.5802
rhand -28.1412 -46.3318
rfingers 7.12502
rthumb 178.478 103.694
lclavicle -8.54774e-015 1.62506e-014
lhumerus -24.1652 7.38349 11.1638
lradius 30.6804
lwrist 50.7239
lhand -32.3692 47.8549
lfingers 7.12502
lthumb 174.395 -102.239
rfemur -61.4034 -4.64721 20.8413
rtibia 107.096
rfoot 30.8877 -11.2563
rtoes 24.3391
lfemur -60.3489 2.23208 -20.0446
ltibia 106.286
lfoot 29.4894 -10.9095
ltoes -15.3098
1093
root -5.10072 1.31573 18.0236 -77.0592 -2.9185 1.41479
lowerback -6.62914 1.52716 2.90557
upperback -9.68975 1.75651 -3.4598
thorax -6.24369 0.510182 -5.24456
lowerneck -8.9777 0.574297 4.01917
upperneck 19.5245 0.257035 -0.688757
head 7.4847 0.35889 -0.872796
rclavicle 2.32578e-014 -2.67365e-014
rhumerus -27.3233 -9.36079 -13.6597
rradius 31.7067
rwrist -36.5338
rhand -28.1022 -46.2615
rfingers 7.12502
rthumb 178.515 103.764
lclavicle 2.32578e-014 -2.67365e-014
lhumerus -24.1698 7.39387 11.1824
lradius 30.6765
lwrist 50.7173
lhand -32.372 47.8401
lfingers 7.12502
lthumb 174.392 -102.254
rfemur -61.4116 -4.64933 20.8229
rtibia 107.091
rfoot 30.8881 -11.242
rtoes 24.3214
lfemur -60.3565 2.22135 -20.0637
ltibia 106.275
lfoot 29.4924 -10.9007
ltoes -15.3146
1094
root -5.10003 1.31702 18.0226 -77.0478 -2.90364 1.40832
lowerback -6.64991 1.52642 2.89051
upperback -9.69088 1.75563 -3.4561
thorax -6.2336 0.511159 -5.23147
lowerneck -8.98429 0.571482 4.03118
upperneck 19.5179 0.259366 -0.731583
head 7.4837 0.356763 -0.888598
rclavicle -1.0138e-014 3.8266e-015
rhumerus -27.321 -9.26828 -13.6863
rradius 31.7078
rwrist -36.4755
rhand -28.0706 -46.2
rfingers 7.12502
rthumb 178.546 103.825
lclavicle -1.0138e-014 3.8266e-015
lhumerus -24.177 7.40227 11.2025
lradius 30.6744
lwrist 50.71
lhand -32.3772 47.8365
lfingers 7.12502
lthumb 174.387 -102.258
rfemur -61.414 -4.65507 20.8022
rtibia 107.087
rfoot 30.8889 -11.2266
rtoes 24.3023
lfemur -60.358 2.20935 -20.0848
ltibia 106.264
lfoot 29.4958 -10.8901
ltoes -15.3264
1095
root -5.0994 1.31824 18.0217 -77.0371 -2.88959 1.40137
lowerback -6.6658 1.52586 2.87606
upperback -9.69301 1.75508 -3.45184
thorax -6.22733 0.512157 -5.21833
lowerneck -9.00364 0.566258 4.01604
upperneck 19.5269 0.254298 -0.735199
head 7.4899 0.352883 -0.88775
rclavicle 3.97569e-016 3.03147e-015
rhumerus -27.3211 -9.15993 -13.7198
rradius 31.7071
rwrist -36.4071
rhand -28.0656 -46.1403
rfingers 7.12502
rthumb 178.551 103.885
lclavicle 3.97569e-016 3.03147e-015
lhumerus -24.1825 7.40684 11.2236
lradius 30.6701
lwrist 50.7023
lhand -32.3741 47.8381
lfingers 7.12502
lthumb 174.39 -102.256
rfemur -61.4156 -4.66152 20.7824
rtibia 107.083
rfoot 30.8848 -11.2247
rtoes 24.3157
lfemur -60.3603 2.19797 -20.1048
ltibia 106.253
lfoot 29.5018 -10.8811
ltoes -15.3457
1096
root -5.09885 1.31934 18.021 -77.0277 -2.87531 1.39468
lowerback -6.6783 1.52645 2.86137
upperback -9.69461 1.75607 -3.44805
thorax -6.2222 0.513878 -5.20559
lowerneck -9.02506 0.560359 4.00114
upperneck 19.5362 0.249119 -0.743661
head 7.4966 0.348503 -0.888546
rclavicle 3.77691e-015 -1.32689e-014
rhumerus -27.3264 -9.04426 -13.7564
rradius 31.7031
rwrist -36.3357
rhand -28.0878 -46.0897
rfingers 7.12502
rthumb 178.529 103.936
lclavicle 3.77691e-015 -1.32689e-014
lhumerus -24.1842 7.40739 11.2489
lradius 30.6668
lwrist 50.7048
lhand -32.3821 47.8319
lfingers 7.12502
lthumb 174.382 -102.263
rfemur -61.4165 -4.66832 20.7626
rtibia 107.079
rfoot 30.8817 -11.2211
rtoes 24.3233
lfemur -60.3617 2.1873 -20.1243
ltibia 106.244
lfoot 29.5085 -10.8685
ltoes -15.3544
1097
root -5.09837 1.32037 18.0204 -77.0138 -2.86288 1.38904
lowerback -6.69666 1.52744 2.84747
upperback -9.69725 1.75744 -3.44401
thorax -6.21486 0.515778 -5.19289
lowerneck -9.05708 0.553497 3.96723
upperneck 19.566 0.23961 -0.724315
head 7.51177 0.343463 -0.877522
rclavicle -3.18055e-015 1.41137e-014
rhumerus -27.3316 -8.92216 -13.7972
rradius 31.6968
rwrist -36.2689
rhand -28.1289 -46.0549
rfingers 7.12502
rthumb 178.49 103.971
lclavicle -3.18055e-015 1.41137e-014
lhumerus -24.188 7.40271 11.2747
lradius 30.6671
lwrist 50.7156
lhand -32.3969 47.8219
lfingers 7.12502
lthumb 174.368 -102.273
rfemur -61.4238 -4.67219 20.7452
rtibia 107.076
rfoot 30.8797 -11.217
rtoes 24.3301
lfemur -60.3701 2.17862 -20.1417
ltibia 106.235
lfoot 29.5171 -10.8553
ltoes -15.3523
1098
root -5.09793 1.32131 18.02 -77.0035 -2.85118 1.38484
lowerback -6.71231 1.53017 2.8349
upperback -9.69818 1.76108 -3.44104
thorax -6.20688 0.5187 -5.18205
lowerneck -9.08154 0.546955 3.94784
upperneck 19.5849 0.232971 -0.727085
head 7.52209 0.33868 -0.875873
rclavicle 7.95139e-015 1.83876e-015
rhumerus -27.3435 -8.80903 -13.8358
rradius 31.6915
rwrist -36.2037
rhand -28.1887 -46.0331
rfingers 7.12502
rthumb 178.432 103.993
lclavicle 7.95139e-015 1.83876e-015
lhumerus -24.1873 7.40637 11.3003
lradius 30.6671
lwrist 50.7164
lhand -32.4106 47.8083
lfingers 7.12502
lthumb 174.355 -102.287
rfemur -61.428 -4.6748 20.7281
rtibia 107.073
rfoot 30.876 -11.219
rtoes 24.3463
lfemur -60.3739 2.172 -20.1583
ltibia 106.227
lfoot 29.5243 -10.844
ltoes -15.3486
1099
root -5.09757 1.32222 18.0198 -76.9897 -2.84287 1.38086
lowerback -6.73228 1.53353 2.82512
upperback -9.70017 1.76539 -3.43784
thorax -6.1975 0.521788 -5.17245
lowerneck -9.11355 0.539629 3.91121
upperneck 19.6188 0.222487 -0.703799
head 7.53861 0.33338 -0.863208
rclavicle 1.33186e-014 -1.56046e-014
rhumerus -27.3594 -8.70393 -13.8716
rradius 31.6911
rwrist -36.1372
rhand -28.2378 -46.0386
rfingers 7.12502
rthumb 178.384 103.988
lclavicle 1.33186e-014 -1.56046e-014
lhumerus -24.1864 7.41647 11.3235
lradius 30.6679
lwrist 50.7037
lhand -32.4175 47.8027
lfingers 7.12502
lthumb 174.348 -102.293
rfemur -61.4365 -4.67506 20.7154
rtibia 107.071
rfoot 30.8717 -11.2213
rtoes 24.3571
lfemur -60.3832 2.16742 -20.171
ltibia 106.221
lfoot 29.5308 -10.8371
ltoes -15.3423
1100
root -5.0973 1.32306 18.0195 -76.9818 -2.83579 1.37777
lowerback -6.7446 1.53683 2.8153
upperback -9.70197 1.76974 -3.43438
thorax -6.19225 0.524803 -5.16278
lowerneck -9.13966 0.532619 3.87136
upperneck 19.6444 0.212173 -0.674716
head 7.55135 0.328385 -0.84806
rclavicle -3.57812e-015 -2.38542e-015
rhumerus -27.377 -8.61158 -13.9025
rradius 31.6928
rwrist -36.0653
rhand -28.2661 -46.0736
rfingers 7.12502
rthumb 178.357 103.953
lclavicle -3.57812e-015 -2.38542e-015
lhumerus -24.186 7.42482 11.3463
lradius 30.6689
lwrist 50.6888
lhand -32.4247 47.7999
lfingers 7.12502
lthumb 174.341 -102.296
rfemur -61.4391 -4.67451 20.7044
rtibia 107.069
rfoot 30.8681 -11.2235
rtoes 24.3576
lfemur -60.3852 2.16462 -20.1822
ltibia 106.215
lfoot 29.5349 -10.8359
ltoes -15.347
1101
root -5.09706 1.32389 18.0193 -76.9725 -2.83199 1.37513
lowerback -6.75658 1.53965 2.80758
upperback -9.70465 1.77348 -3.43014
thorax -6.18819 0.527358 -5.15352
lowerneck -9.17076 0.525842 3.81537
upperneck 19.672 0.199539 -0.619942
head 7.56562 0.323528 -0.821999
rclavicle 3.97569e-015 -3.52843e-015
rhumerus -27.3951 -8.52766 -13.9314
rradius 31.7017
rwrist -35.9948
rhand -28.2723 -46.134
rfingers 7.12502
rthumb 178.351 103.893
lclavicle 3.97569e-015 -3.52843e-015
lhumerus -24.1872 7.43973 11.3648
lradius 30.6693
lwrist 50.6663
lhand -32.421 47.7927
lfingers 7.12502
lthumb 174.345 -102.303
rfemur -61.4437 -4.67186 20.6975
rtibia 107.068
rfoot 30.8628 -11.2304
rtoes 24.3612
lfemur -60.3898 2.16353 -20.1898
ltibia 106.21
lfoot 29.537 -10.8406
ltoes -15.3593
1102
root -5.09692 1.32468 18.019 -76.9663 -2.82838 1.37242
lowerback -6.76226 1.54089 2.79717
upperback -9.70768 1.77533 -3.42516
thorax -6.18835 0.529086 -5.14218
lowerneck -9.19253 0.522525 3.78377
upperneck 19.6836 0.194214 -0.595
head 7.57315 0.321055 -0.809067
rclavicle -2.22639e-014 3.88624e-014
rhumerus -27.4103 -8.44872 -13.9582
rradius 31.7125
rwrist -35.931
rhand -28.261 -46.2086
rfingers 7.12502
rthumb 178.362 103.818
lclavicle -2.22639e-014 3.88624e-014
lhumerus -24.1909 7.45114 11.382
lradius 30.6679
lwrist 50.6413
lhand -32.4171 47.7859
lfingers 7.12502
lthumb 174.349 -102.309
rfemur -61.4453 -4.6698 20.6914
rtibia 107.067
rfoot 30.8595 -11.2327
rtoes 24.3517
lfemur -60.3904 2.16196 -20.1962
ltibia 106.205
lfoot 29.5363 -10.8426
ltoes -15.364
1103
root -5.09679 1.32547 18.0187 -76.9549 -2.8272 1.36993
lowerback -6.77249 1.54192 2.78863
upperback -9.71254 1.77677 -3.42034
thorax -6.18796 0.530454 -5.13202
lowerneck -9.21855 0.518903 3.74369
upperneck 19.7006 0.185676 -0.550321
head 7.58319 0.318334 -0.788548
rclavicle 1.82882e-014 -1.60022e-014
rhumerus -27.4247 -8.3746 -13.984
rradius 31.7283
rwrist -35.8742
rhand -28.2435 -46.2867
rfingers 7.12502
rthumb 178.379 103.74
lclavicle 1.82882e-014 -1.60022e-014
lhumerus -24.1954 7.45497 11.3977
lradius 30.666
lwrist 50.6207
lhand -32.4106 47.7792
lfingers 7.12502
lthumb 174.355 -102.316
rfemur -61.4529 -4.66676 20.6885
rtibia 107.066
rfoot 30.8546 -11.2457
rtoes 24.3665
lfemur -60.3982 2.16058 -20.1997
ltibia 106.202
lfoot 29.5369 -10.8436
ltoes -15.3648
